# xmcd
#
# Track frame offsets:
#	150
#	14817
#	35008
#	48934
#	68371
#	90020
#	109283
#	134862
#	151366
#	167612
#	181200
#	205322
#	221053
#	235970
#	252033
#	267276
#	285114
#	302617
#	320726
#
# Disc length: 4523 seconds
#
# Revision: 1
# Processed by: cddbd v1.5.2PL0 Copyright (c) Steve Scherf et al.
# Submitted via: audiograbber 1.83.01
#
DISCID=0a11a913
DTITLE=Юрий Шатунов - Если хочешь
DYEAR=1900
DGENRE=
TTITLE0=Не бойся
TTITLE1=Если хочешь
TTITLE2=Мне трудно говорить
TTITLE3=Цветы
TTITLE4=Ну что же ты
TTITLE5=Дождь-дождь
TTITLE6=Белые розы
TTITLE7=Я откровенен
TTITLE8=Лето
TTITLE9=Дни уходят
TTITLE10=Пусть будет ночь
TTITLE11=Мой дождик
TTITLE12=Забудь
TTITLE13=Детство
TTITLE14=Вспомни
TTITLE15=Снег в сентябре
TTITLE16=Этот вечер
TTITLE17=Твой дневник
TTITLE18=Я перессорился с дождем
EXTD=
EXTT0=
EXTT1=
EXTT2=
EXTT3=
EXTT4=
EXTT5=
EXTT6=
EXTT7=
EXTT8=
EXTT9=
EXTT10=
EXTT11=
EXTT12=
EXTT13=
EXTT14=
EXTT15=
EXTT16=
EXTT17=
EXTT18=
PLAYORDER=
